# xmcd
#
# Track frame offsets:
#	187
#	23152
#	39822
#	56369
#	71532
#	89269
#
# Disc length: 1725 seconds
#
# Revision: 1
# Processed by: cddbd v1.5.1PL0 Copyright (c) Steve Scherf et al.
# Submitted via: CDex 1.50Beta5
#
DISCID=3e06bb06
DTITLE=高橋クミコ - machi
DYEAR=1900
DGENRE=Pop
TTITLE0=まち
TTITLE1=この世の果てへ
TTITLE2=自由の扉
TTITLE3=テレフォン
TTITLE4=ごめんこうむります
TTITLE5=さとうきび畑
EXTD=
EXTT0=
EXTT1=
EXTT2=
EXTT3=
EXTT4=
EXTT5=
PLAYORDER=
